<?xml version="1.0" encoding="UTF-8" standalone="no"?>
<svg
   xmlns:dc="http://purl.org/dc/elements/1.1/"
   xmlns:cc="http://creativecommons.org/ns#"
   xmlns:rdf="http://www.w3.org/1999/02/22-rdf-syntax-ns#"
   xmlns:svg="http://www.w3.org/2000/svg"
   xmlns="http://www.w3.org/2000/svg"
   xmlns:sodipodi="http://sodipodi.sourceforge.net/DTD/sodipodi-0.dtd"
   xmlns:inkscape="http://www.inkscape.org/namespaces/inkscape"
   inkscape:version="1.0 (4035a4f, 2020-05-01)"
   height="100"
   width="100"
   sodipodi:docname="icon.svg"
   id="svg3630"
   xml:space="preserve"
   enable-background="new 0 0 72 72"
   viewBox="0 0 100 100"
   y="0px"
   x="0px"
   version="1.1"><metadata
     id="metadata3636"><rdf:RDF><cc:Work
         rdf:about=""><dc:format>image/svg+xml</dc:format><dc:type
           rdf:resource="http://purl.org/dc/dcmitype/StillImage" /><dc:title></dc:title></cc:Work></rdf:RDF></metadata><defs
     id="defs3634" /><sodipodi:namedview
     inkscape:current-layer="svg3630"
     inkscape:window-maximized="0"
     inkscape:window-y="26"
     inkscape:window-x="0"
     inkscape:cy="43.925848"
     inkscape:cx="36.210275"
     inkscape:zoom="6.5475744"
     showgrid="false"
     id="namedview3632"
     inkscape:window-height="1024"
     inkscape:window-width="1680"
     inkscape:pageshadow="2"
     inkscape:pageopacity="0"
     guidetolerance="10"
     gridtolerance="10"
     objecttolerance="10"
     borderopacity="1"
     bordercolor="#666666"
     pagecolor="#ffffff" /><path
     d="M 82.515625,100.48774 C 77.800659,100.5405 73.026784,98.77234 69.439453,95.185009 64.234307,89.979863 62.967876,82.525357 65.21875,76.194774 65.35943,75.772735 65.359539,75.20861 64.9375,74.786571 L 26.25,36.101024 C 25.827961,35.678985 25.406468,35.677141 24.84375,35.817821 18.372487,38.209375 10.916029,36.804217 5.8515625,31.599071 0.9277754,26.675284 -0.47917122,19.921788 1.2089844,13.731884 c 0.2813592,-0.984757 1.5466019,-1.265899 2.25,-0.5625 l 6.1914062,6.189453 c 2.6729134,2.672913 7.0341184,2.672913 9.7070314,0 2.672913,-2.672913 2.672913,-7.034119 0,-9.7070316 l -6.191406,-6.189453 c -0.703398,-0.703398 -0.420305,-1.968641 0.564453,-2.25 6.049224,-1.688149 12.941502,-0.281209 17.724609,4.642579 5.205147,5.2051446 6.471577,12.6596496 4.220703,18.9902336 -0.14068,0.422039 -0.140789,0.986164 0.28125,1.408203 L 74.785156,65.07954 c 0.422039,0.422039 0.843531,0.42193 1.40625,0.28125 6.471263,-2.391553 13.927721,-0.984443 18.992188,4.220703 4.783107,4.783108 6.330736,11.677338 4.642578,17.726562 -0.281359,0.984758 -1.548555,1.265898 -2.251953,0.5625 l -6.330078,-6.048828 c -2.672913,-2.813593 -6.893494,-2.813593 -9.566407,0 -2.672913,2.672913 -2.672913,7.034118 0,9.707032 l 6.189454,6.189453 c 0.703398,0.703398 0.281632,1.828016 -0.703126,2.109375 -1.512305,0.422043 -3.076782,0.642573 -4.648437,0.660153 z M 11.162109,100.35493 C 8.4891963,100.46044 5.7820421,99.617387 3.7421875,97.718212 -0.4782014,93.779182 -0.62072485,87.026436 3.4589844,82.946727 L 33.001953,53.403759 c 0.703398,-0.703398 1.97043,-0.703398 2.673828,0 L 47.632812,65.36079 c 0.703398,0.703398 0.703398,1.97043 0,2.673828 L 18.371094,97.296337 c -1.899175,1.899175 -4.536072,2.953083 -7.208985,3.058593 z M 62.052734,43.802196 c -0.492378,0 -0.984238,-0.175644 -1.335937,-0.527344 l -3.095703,-3.095703 c -0.703398,-0.703398 -0.703398,-1.968477 0,-2.671875 L 82.943359,12.185009 c 0.140679,-0.14068 0.281195,-0.421821 0.421875,-0.5625 l 2.673828,-5.2050776 c 0.14068,-0.281359 0.421766,-0.564345 0.703126,-0.845704 l 6.892578,-4.640624 c 0.844077,-0.56272 2.111055,-0.42215 2.814453,0.281249 l 3.095703,3.09375 c 0.703398,0.703398 0.843968,1.970377 0.28125,2.814453 l -4.501953,7.0332036 c -0.281359,0.281359 -0.56239,0.562445 -0.84375,0.703125 l -5.205078,2.673828 c -0.140679,0.14068 -0.423774,0.281195 -0.564453,0.421875 L 63.388672,43.274852 c -0.351699,0.3517 -0.843559,0.527344 -1.335938,0.527344 z"
     style="stroke-width:1.4068"
     id="foreground" /><text
     id="text3626"
     font-family="'Helvetica Neue', Helvetica, Arial-Unicode, Arial, Sans-serif"
     font-weight="bold"
     font-size="5px"
     fill="#000000"
     y="106.13302"
     x="0.74821854">Created by Creative Stall</text><text
     id="text3628"
     font-family="'Helvetica Neue', Helvetica, Arial-Unicode, Arial, Sans-serif"
     font-weight="bold"
     font-size="5px"
     fill="#000000"
     y="111.13302"
     x="0.74821854">from the Noun Project</text></svg>
