<?xml version="1.0" encoding="UTF-8" standalone="no"?>
<svg
   xmlns:dc="http://purl.org/dc/elements/1.1/"
   xmlns:cc="http://creativecommons.org/ns#"
   xmlns:rdf="http://www.w3.org/1999/02/22-rdf-syntax-ns#"
   xmlns:svg="http://www.w3.org/2000/svg"
   xmlns="http://www.w3.org/2000/svg"
   xmlns:sodipodi="http://sodipodi.sourceforge.net/DTD/sodipodi-0.dtd"
   xmlns:inkscape="http://www.inkscape.org/namespaces/inkscape"
   height="100"
   width="100"
   inkscape:version="1.0 (4035a4f, 2020-05-01)"
   sodipodi:docname="icon.svg"
   id="svg6413"
   version="1.1"
   y="0px"
   x="0px"
   viewBox="0 0 100 100"
   data-name="Layer 1">
  <metadata
     id="metadata6419">
    <rdf:RDF>
      <cc:Work
         rdf:about="">
        <dc:format>image/svg+xml</dc:format>
        <dc:type
           rdf:resource="http://purl.org/dc/dcmitype/StillImage" />
        <dc:title>118all</dc:title>
      </cc:Work>
    </rdf:RDF>
  </metadata>
  <defs
     id="defs6417" />
  <sodipodi:namedview
     inkscape:current-layer="svg6413"
     inkscape:window-maximized="0"
     inkscape:window-y="26"
     inkscape:window-x="0"
     inkscape:cy="64.370748"
     inkscape:cx="8.2482998"
     inkscape:zoom="5.88"
     showgrid="false"
     id="namedview6415"
     inkscape:window-height="1024"
     inkscape:window-width="1680"
     inkscape:pageshadow="2"
     inkscape:pageopacity="0"
     guidetolerance="10"
     gridtolerance="10"
     objecttolerance="10"
     borderopacity="1"
     bordercolor="#666666"
     pagecolor="#ffffff"
     inkscape:document-rotation="0" />
  <title
     id="title6397">118all</title>
  <path
     style="stroke-width:1.11985"
     d="m 38.969502,62.574694 -5.65523,5.644032 -5.644031,-5.644032 -4.748153,4.748154 5.644031,5.655229 -5.644031,5.644032 4.748153,4.748153 5.644031,-5.644031 5.65523,5.644031 4.748153,-4.748153 -5.644031,-5.644032 5.644031,-5.655229 z m 11.53443,7.03264 h 26.484392 v 6.719085 H 50.503932 Z M 32.160829,46.191326 27.558256,42.462234 23.325233,47.691921 33.000715,55.519655 46.416488,39.92018 41.321182,35.541576 Z m 18.903027,-2.978797 h 26.484392 v 6.719085 H 51.063856 Z M 90.941624,6.7055042 h -30.32547 a 11.791994,11.791994 0 0 0 -21.277102,0 H 9.058376 V 100 H 90.941624 Z M 44.467953,13.424589 45.039075,10.77055 a 5.0841075,5.0841075 0 0 1 9.933048,0 l 0.571122,2.654039 h 6.506314 v 6.215153 H 37.961639 V 13.424589 Z M 84.222539,93.292111 H 15.777461 V 13.424589 h 15.465094 v 12.934238 h 37.51489 V 13.424589 h 15.465094 z"
     id="foreground" />
</svg>
